<svg version="1.1" id="Layer_1" xmlns="http://www.w3.org/2000/svg" xmlns:xlink="http://www.w3.org/1999/xlink" x="0px" y="0px"
	 width="100%" viewBox="0 0 512 512" enable-background="new 0 0 512 512" xml:space="preserve">
<path fill="#0486C4" opacity="1.000000" stroke="none"
	d="
M234.000000,1.000000
	C251.687561,1.000000 269.375122,1.000000 287.807312,1.204958
	C291.612396,3.530005 295.310364,2.903424 298.652374,3.419305
	C329.370789,8.161020 358.062073,18.609438 384.932068,33.990192
	C412.745148,49.910770 436.528870,70.605751 456.836761,95.463814
	C475.979980,118.896240 490.113434,145.012421 500.168457,173.400558
	C507.112488,193.005463 510.936310,213.331100 513.000000,234.000000
	C513.000000,249.020889 513.000000,264.041779 512.997681,279.934631
	C512.119812,287.025146 511.283112,293.249420 510.362183,299.461243
	C506.429260,325.988983 497.673706,350.967285 485.528015,374.752319
	C478.122620,389.254364 469.370026,402.971832 459.183228,415.730774
	C444.502167,434.118774 427.828400,450.468597 408.855560,464.383850
	C394.228760,475.111542 378.639801,484.206696 362.017944,491.603546
	C343.594177,499.802216 324.601746,505.907257 304.765167,509.595398
	C299.502136,510.573975 293.847717,510.036163 289.000000,513.000000
	C267.979095,513.000000 246.958206,513.000000 225.274002,512.739868
	C217.847382,510.263855 210.723999,509.923828 203.800995,508.511932
	C183.528793,504.377625 164.129623,497.639099 145.546341,488.720154
	C127.990753,480.294403 111.562454,469.935303 96.404579,457.622986
	C82.816597,446.585846 70.338264,434.417908 59.153564,420.970917
	C43.572643,402.238525 30.902283,381.676605 21.222780,359.295197
	C13.625528,341.728546 7.918058,323.607513 4.462265,304.741333
	C3.499127,299.483307 4.050254,293.817078 1.000000,289.000000
	C1.000000,270.979095 1.000000,252.958206 1.022891,234.068405
	C1.557033,229.602951 2.139922,226.014908 2.568290,222.408508
	C6.256080,191.361252 16.117487,162.347427 30.850243,134.835693
	C46.433300,105.736099 67.112320,80.800339 92.272255,59.652153
	C121.169724,35.362392 154.028564,18.396954 190.530136,8.605160
	C204.790741,4.779660 219.352798,2.636594 234.000000,1.000000
M381.155731,81.404823
	C374.328613,76.667976 367.434784,72.010864 360.083740,68.133957
	C323.328949,48.749680 284.493225,39.092522 242.666611,42.264629
	C221.645142,43.858883 201.350418,48.083344 181.650620,55.445805
	C155.641953,65.166100 132.422180,79.530449 112.049477,98.283371
	C95.464699,113.549553 81.467758,130.962982 70.118805,150.587540
	C52.278454,181.436996 43.353218,214.774445 41.477463,250.082626
	C40.432533,269.751831 43.159504,289.221100 47.886238,308.269562
	C56.786404,344.136566 74.041344,375.685547 99.151405,402.771332
	C114.256859,419.065369 131.360901,432.984985 150.836929,443.914032
	C188.270081,464.919861 228.139053,474.919800 271.200317,471.726746
	C287.499359,470.518127 303.367218,467.668701 319.005402,462.972595
	C350.797241,453.425690 378.707245,437.143829 402.962769,414.667511
	C423.791595,395.366608 440.351654,372.824219 452.401306,347.029663
	C465.015717,320.026215 471.306122,291.512970 472.564667,261.859802
	C473.100494,249.234390 471.524170,236.715210 469.728546,224.200867
	C465.678284,195.973373 455.759888,169.842026 441.084137,145.649490
	C425.758118,120.385147 405.762268,99.159683 381.155731,81.404823
z"/>
<path fill="#0486C4" opacity="1.000000" stroke="none"
	d="
M277.443115,231.339508
	C278.348633,235.189209 281.146179,234.596146 283.567230,234.598923
	C307.390869,234.626160 331.215027,234.708984 355.037903,234.574127
	C363.882507,234.524048 370.910675,237.864441 374.595795,245.786072
	C378.245972,253.632629 377.491028,261.843903 372.009125,268.837646
	C367.205139,274.966431 360.020142,276.286774 352.742706,276.330902
	C329.919434,276.469299 307.094910,276.388336 284.270844,276.405640
	C277.775543,276.410583 277.388702,276.776764 277.384644,283.104675
	C277.369385,306.928345 277.217316,330.753479 277.442535,354.575012
	C277.555267,366.500427 268.865570,375.026306 257.040405,375.111450
	C246.022141,375.190765 236.495956,367.282837 236.583542,354.653809
	C236.748718,330.831299 236.641632,307.006836 236.628586,283.183167
	C236.625076,276.791504 236.267303,276.424164 229.804642,276.416138
	C207.480408,276.388428 185.155914,276.444702 162.832016,276.351562
	C157.188416,276.328033 151.627747,275.782776 146.554718,272.704559
	C137.447128,267.178192 136.234589,257.255554 138.259933,248.590027
	C140.190628,240.329498 148.446396,234.650574 157.404526,234.635803
	C181.561325,234.596008 205.718231,234.627716 229.875092,234.612106
	C236.347519,234.607910 236.622345,234.334503 236.626617,227.817825
	C236.642426,203.660965 236.617615,179.504089 236.641266,155.347244
	C236.652557,143.810028 245.198257,135.578156 257.035583,135.617126
	C268.847748,135.656006 277.357391,143.928436 277.370056,155.447617
	C277.397675,180.603607 277.397461,205.759628 277.443115,231.339508
z"/>
</svg>
